<svg width="521" height="364" viewBox="0 0 521 364" fill="none" xmlns="http://www.w3.org/2000/svg">
<path d="M41.0058 0.714182L489.828 39.981C498.657 40.7535 506.818 45.0018 512.515 51.7914C518.212 58.581 520.979 67.3557 520.206 76.1852L497.757 332.787C496.984 341.616 492.736 349.777 485.946 355.474C479.157 361.171 470.382 363.938 461.553 363.165L12.7308 323.899C4.58053 323.186 -2.9527 319.264 -8.21162 312.997C-13.4705 306.729 -16.0243 298.63 -15.3113 290.479L7.58876 28.7307C8.30181 20.5804 12.2233 13.0472 18.4907 7.7883C24.758 2.52938 32.8577 -0.0244707 41.008 0.688587L41.0058 0.714182Z" fill="url(#paint0_linear_552_1714)"/>
<defs>
<linearGradient id="paint0_linear_552_1714" x1="9.36672" y1="8.40846" x2="344.113" y2="474.365" gradientUnits="userSpaceOnUse">
<stop stop-color="#FF6B00" stop-opacity="0.97"/>
<stop offset="1" stop-color="#FE8C00" stop-opacity="0.8"/>
</linearGradient>
</defs>
</svg>
