<svg width="505" height="379" viewBox="0 0 505 379" fill="none" xmlns="http://www.w3.org/2000/svg">
<path d="M27.2746 56.1963L474.417 1.00117C483.213 -0.0846627 492.081 2.36837 499.069 7.82059C506.057 13.2728 510.592 21.2776 511.678 30.0741L543.234 285.715C544.32 294.512 541.867 303.379 536.415 310.367C530.963 317.355 522.958 321.891 514.162 322.976L67.0192 378.172C58.8994 379.174 50.714 376.91 44.2637 371.877C37.8134 366.844 33.6266 359.455 32.6243 351.335L0.434958 90.5657C-0.567347 82.4459 1.69695 74.2606 6.72977 67.8103C11.7626 61.36 19.1517 57.1731 27.2715 56.1708L27.2746 56.1963Z" fill="#0094FF"/>
</svg>
