<svg width="18" height="18" viewBox="0 0 18 18" fill="none" xmlns="http://www.w3.org/2000/svg">
<path d="M12.7938 17.1267C12.4113 17.1267 12.0264 17.075 11.6464 16.9708C6.50887 15.5608 2.44136 11.4958 1.03053 6.36168C0.709693 5.19418 0.885483 3.97751 1.52715 2.93751C2.17132 1.89251 3.23053 1.15501 4.43303 0.915006C5.23303 0.755006 6.02386 1.11168 6.4297 1.79585L7.73219 3.99583C8.36469 5.06417 8.05041 6.44 7.01624 7.12833L6.07386 7.75501C6.9547 9.56335 8.43624 11.0492 10.2371 11.9292L10.8722 10.9817C11.5647 9.94916 12.9405 9.64001 14.008 10.2758L16.2106 11.5892C16.8922 11.9958 17.2447 12.7917 17.0897 13.5683C16.8497 14.7708 16.1122 15.83 15.068 16.4742C14.3663 16.9058 13.5855 17.1267 12.7938 17.1267ZM4.81552 2.125C4.77469 2.125 4.73304 2.12918 4.69304 2.13751C3.81471 2.31335 3.05388 2.8425 2.59221 3.59333C2.13471 4.335 2.00886 5.20084 2.23719 6.03001C3.53136 10.7408 7.26385 14.4717 11.9772 15.765C12.8072 15.9925 13.6704 15.8658 14.4113 15.4092C15.1613 14.9467 15.6914 14.185 15.8639 13.3217C15.9156 13.0625 15.798 12.7967 15.5697 12.6608L13.368 11.3475C12.8721 11.0525 12.2321 11.1967 11.9104 11.6758L10.9813 13.0633C10.8146 13.3117 10.4931 13.4067 10.2214 13.2917C7.75224 12.2592 5.74306 10.2458 4.70973 7.7675C4.59473 7.49083 4.69127 7.1725 4.94044 7.00667L6.32472 6.08583C6.80472 5.76666 6.95051 5.1275 6.65634 4.63167L5.35385 2.43249C5.23968 2.23916 5.03302 2.125 4.81552 2.125Z" fill="white"/>
</svg>
