<svg width="137" height="137" viewBox="0 0 137 137" fill="none" xmlns="http://www.w3.org/2000/svg">
<g clip-path="url(#clip0_552_1719)">
<path d="M136.59 11.2364L11.5461 0.296509L0.606204 125.341L125.65 136.281L136.59 11.2364Z" fill="white"/>
<path d="M67.841 19.3338C68.6697 19.4063 69.4003 18.7933 69.4728 17.9646C69.5453 17.1359 68.9323 16.4053 68.1036 16.3328C67.2748 16.2603 66.5443 16.8733 66.4717 17.702C66.3992 18.5307 67.0123 19.2613 67.841 19.3338Z" fill="black"/>
<path d="M72.8427 19.7714C73.6714 19.8439 74.402 19.2309 74.4745 18.4022C74.547 17.5734 73.934 16.8429 73.1053 16.7703C72.2765 16.6978 71.546 17.3109 71.4735 18.1396C71.401 18.9683 72.014 19.6989 72.8427 19.7714Z" fill="black"/>
<path d="M82.8461 20.6466C83.6748 20.7191 84.4054 20.1061 84.4779 19.2774C84.5504 18.4487 83.9374 17.7181 83.1087 17.6456C82.28 17.5731 81.5494 18.1861 81.4769 19.0148C81.4044 19.8435 82.0174 20.5741 82.8461 20.6466Z" fill="black"/>
<path d="M67.4033 24.3356C68.232 24.4081 68.9626 23.7951 69.0351 22.9663C69.1076 22.1376 68.4945 21.407 67.6658 21.3345C66.8371 21.262 66.1065 21.8751 66.034 22.7038C65.9615 23.5325 66.5745 24.2631 67.4033 24.3356Z" fill="black"/>
<path d="M61.964 28.8997C62.7928 28.9723 63.5233 28.3592 63.5959 27.5305C63.6684 26.7018 63.0553 25.9712 62.2266 25.8987C61.3979 25.8262 60.6673 26.4392 60.5948 27.2679C60.5223 28.0967 61.1353 28.8272 61.964 28.8997Z" fill="black"/>
<path d="M66.9658 29.3373C67.7945 29.4098 68.5251 28.7968 68.5976 27.9681C68.6701 27.1394 68.057 26.4088 67.2283 26.3363C66.3996 26.2638 65.669 26.8768 65.5965 27.7055C65.524 28.5342 66.137 29.2648 66.9658 29.3373Z" fill="black"/>
<path d="M71.9672 29.7749C72.7959 29.8474 73.5265 29.2344 73.599 28.4057C73.6715 27.577 73.0585 26.8464 72.2298 26.7739C71.4011 26.7014 70.6705 27.3144 70.598 28.1431C70.5255 28.9719 71.1385 29.7024 71.9672 29.7749Z" fill="black"/>
<path d="M76.9694 30.2125C77.7981 30.285 78.5287 29.672 78.6012 28.8433C78.6737 28.0146 78.0607 27.284 77.232 27.2115C76.4033 27.139 75.6727 27.752 75.6002 28.5807C75.5277 29.4094 76.1407 30.14 76.9694 30.2125Z" fill="black"/>
<path d="M61.5263 33.9015C62.355 33.974 63.0856 33.361 63.1581 32.5323C63.2306 31.7035 62.6176 30.973 61.7889 30.9005C60.9601 30.828 60.2296 31.441 60.1571 32.2697C60.0845 33.0984 60.6976 33.829 61.5263 33.9015Z" fill="black"/>
<path d="M71.5297 34.7767C72.3584 34.8492 73.089 34.2362 73.1615 33.4074C73.234 32.5787 72.621 31.8481 71.7923 31.7756C70.9636 31.7031 70.233 32.3162 70.1605 33.1449C70.088 33.9736 70.701 34.7042 71.5297 34.7767Z" fill="black"/>
<path d="M61.0888 38.9033C61.9175 38.9758 62.6481 38.3628 62.7206 37.534C62.7931 36.7053 62.1801 35.9747 61.3514 35.9022C60.5226 35.8297 59.7921 36.4428 59.7196 37.2715C59.647 38.1002 60.2601 38.8308 61.0888 38.9033Z" fill="black"/>
<path d="M66.0903 39.3409C66.919 39.4134 67.6496 38.8003 67.7221 37.9716C67.7946 37.1429 67.1815 36.4123 66.3528 36.3398C65.5241 36.2673 64.7935 36.8803 64.721 37.7091C64.6485 38.5378 65.2615 39.2684 66.0903 39.3409Z" fill="black"/>
<path d="M76.0939 40.2161C76.9226 40.2886 77.6532 39.6755 77.7257 38.8468C77.7982 38.0181 77.1852 37.2875 76.3565 37.215C75.5278 37.1425 74.7972 37.7555 74.7247 38.5843C74.6522 39.413 75.2652 40.1436 76.0939 40.2161Z" fill="black"/>
<path d="M81.0959 40.6537C81.9246 40.7262 82.6552 40.1132 82.7277 39.2844C82.8002 38.4557 82.1872 37.7251 81.3584 37.6526C80.5297 37.5801 79.7991 38.1932 79.7266 39.0219C79.6541 39.8506 80.2672 40.5812 81.0959 40.6537Z" fill="black"/>
<path d="M60.6513 43.9051C61.48 43.9776 62.2106 43.3645 62.2831 42.5358C62.3556 41.7071 61.7426 40.9765 60.9139 40.904C60.0851 40.8315 59.3546 41.4445 59.2821 42.2732C59.2095 43.102 59.8226 43.8326 60.6513 43.9051Z" fill="black"/>
<path d="M70.6545 44.7802C71.4832 44.8527 72.2138 44.2397 72.2863 43.411C72.3588 42.5823 71.7458 41.8517 70.917 41.7792C70.0883 41.7067 69.3577 42.3197 69.2852 43.1484C69.2127 43.9771 69.8258 44.7077 70.6545 44.7802Z" fill="black"/>
<path d="M80.6586 45.6554C81.4873 45.7279 82.2179 45.1149 82.2904 44.2862C82.3629 43.4575 81.7499 42.7269 80.9212 42.6544C80.0925 42.5819 79.3619 43.1949 79.2894 44.0236C79.2169 44.8523 79.8299 45.5829 80.6586 45.6554Z" fill="black"/>
<path d="M60.2136 48.9068C61.0423 48.9793 61.7729 48.3663 61.8454 47.5375C61.9179 46.7088 61.3048 45.9782 60.4761 45.9057C59.6474 45.8332 58.9168 46.4463 58.8443 47.275C58.7718 48.1037 59.3848 48.8343 60.2136 48.9068Z" fill="black"/>
<path d="M70.217 49.782C71.0457 49.8545 71.7763 49.2415 71.8488 48.4127C71.9213 47.584 71.3083 46.8534 70.4795 46.7809C69.6508 46.7084 68.9202 47.3215 68.8477 48.1502C68.7752 48.9789 69.3883 49.7095 70.217 49.782Z" fill="black"/>
<path d="M80.2206 50.6572C81.0494 50.7297 81.7799 50.1167 81.8524 49.2879C81.9249 48.4592 81.3119 47.7286 80.4832 47.6561C79.6545 47.5836 78.9239 48.1967 78.8514 49.0254C78.7789 49.8541 79.3919 50.5847 80.2206 50.6572Z" fill="black"/>
<path d="M59.7761 53.9086C60.6048 53.9811 61.3354 53.368 61.4079 52.5393C61.4804 51.7106 60.8673 50.98 60.0386 50.9075C59.2099 50.835 58.4793 51.448 58.4068 52.2768C58.3343 53.1055 58.9473 53.8361 59.7761 53.9086Z" fill="black"/>
<path d="M64.7775 54.3461C65.6062 54.4186 66.3368 53.8056 66.4093 52.9769C66.4818 52.1482 65.8688 51.4176 65.0401 51.3451C64.2114 51.2726 63.4808 51.8856 63.4083 52.7143C63.3358 53.5431 63.9488 54.2736 64.7775 54.3461Z" fill="black"/>
<path d="M69.7797 54.7837C70.6084 54.8562 71.339 54.2432 71.4115 53.4145C71.484 52.5858 70.871 51.8552 70.0423 51.7827C69.2136 51.7102 68.483 52.3232 68.4105 53.1519C68.338 53.9806 68.951 54.7112 69.7797 54.7837Z" fill="black"/>
<path d="M74.7812 55.2213C75.6099 55.2938 76.3405 54.6808 76.413 53.8521C76.4855 53.0234 75.8725 52.2928 75.0437 52.2203C74.215 52.1478 73.4844 52.7608 73.4119 53.5895C73.3394 54.4183 73.9525 55.1488 74.7812 55.2213Z" fill="black"/>
<path d="M79.7831 55.659C80.6119 55.7315 81.3424 55.1184 81.4149 54.2897C81.4874 53.461 80.8744 52.7304 80.0457 52.6579C79.217 52.5854 78.4864 53.1984 78.4139 54.0272C78.3414 54.8559 78.9544 55.5865 79.7831 55.659Z" fill="black"/>
<path d="M19.3242 55.4095C20.1529 55.482 20.8835 54.869 20.956 54.0403C21.0285 53.2116 20.4154 52.481 19.5867 52.4085C18.758 52.336 18.0274 52.949 17.9549 53.7777C17.8824 54.6065 18.4954 55.337 19.3242 55.4095Z" fill="black"/>
<path d="M29.3278 56.2847C30.1565 56.3572 30.8871 55.7442 30.9596 54.9155C31.0321 54.0868 30.4191 53.3562 29.5904 53.2837C28.7617 53.2112 28.0311 53.8242 27.9586 54.6529C27.8861 55.4816 28.4991 56.2122 29.3278 56.2847Z" fill="black"/>
<path d="M34.3293 56.7223C35.158 56.7948 35.8886 56.1818 35.9611 55.3531C36.0336 54.5244 35.4206 53.7938 34.5918 53.7213C33.7631 53.6488 33.0325 54.2618 32.96 55.0905C32.8875 55.9192 33.5006 56.6498 34.3293 56.7223Z" fill="black"/>
<path d="M39.3315 57.16C40.1602 57.2325 40.8908 56.6194 40.9633 55.7907C41.0358 54.962 40.4228 54.2314 39.594 54.1589C38.7653 54.0864 38.0347 54.6994 37.9622 55.5281C37.8897 56.3569 38.5028 57.0875 39.3315 57.16Z" fill="black"/>
<path d="M44.3334 57.5975C45.1621 57.67 45.8927 57.057 45.9652 56.2283C46.0377 55.3996 45.4247 54.669 44.596 54.5965C43.7673 54.524 43.0367 55.137 42.9642 55.9657C42.8917 56.7944 43.5047 57.525 44.3334 57.5975Z" fill="black"/>
<path d="M49.3349 58.0351C50.1636 58.1076 50.8942 57.4946 50.9667 56.6659C51.0392 55.8372 50.4262 55.1066 49.5975 55.0341C48.7687 54.9616 48.0381 55.5746 47.9656 56.4033C47.8931 57.232 48.5062 57.9626 49.3349 58.0351Z" fill="black"/>
<path d="M69.3417 59.7855C70.1704 59.858 70.901 59.245 70.9735 58.4163C71.046 57.5875 70.433 56.857 69.6043 56.7844C68.7756 56.7119 68.045 57.325 67.9725 58.1537C67.9 58.9824 68.513 59.713 69.3417 59.7855Z" fill="black"/>
<path d="M79.3459 60.6607C80.1746 60.7332 80.9052 60.1202 80.9777 59.2915C81.0502 58.4627 80.4372 57.7321 79.6084 57.6596C78.7797 57.5871 78.0491 58.2002 77.9766 59.0289C77.9041 59.8576 78.5172 60.5882 79.3459 60.6607Z" fill="black"/>
<path d="M89.3488 61.5359C90.1775 61.6084 90.9081 60.9954 90.9806 60.1667C91.0531 59.3379 90.4401 58.6074 89.6114 58.5349C88.7826 58.4624 88.0521 59.0754 87.9796 59.9041C87.9071 60.7328 88.5201 61.4634 89.3488 61.5359Z" fill="black"/>
<path d="M94.351 61.9735C95.1797 62.046 95.9103 61.433 95.9828 60.6042C96.0553 59.7755 95.4423 59.0449 94.6136 58.9724C93.7848 58.8999 93.0543 59.513 92.9818 60.3417C92.9093 61.1704 93.5223 61.901 94.351 61.9735Z" fill="black"/>
<path d="M99.3525 62.4111C100.181 62.4836 100.912 61.8706 100.984 61.0419C101.057 60.2131 100.444 59.4826 99.615 59.4101C98.7863 59.3376 98.0557 59.9506 97.9832 60.7793C97.9107 61.608 98.5238 62.3386 99.3525 62.4111Z" fill="black"/>
<path d="M104.354 62.8487C105.183 62.9212 105.913 62.3082 105.986 61.4795C106.058 60.6507 105.445 59.9202 104.616 59.8476C103.788 59.7751 103.057 60.3882 102.985 61.2169C102.912 62.0456 103.525 62.7762 104.354 62.8487Z" fill="black"/>
<path d="M109.356 63.2863C110.185 63.3588 110.915 62.7458 110.988 61.917C111.06 61.0883 110.447 60.3577 109.619 60.2852C108.79 60.2127 108.059 60.8258 107.987 61.6545C107.914 62.4832 108.527 63.2138 109.356 63.2863Z" fill="black"/>
<path d="M23.8884 60.8489C24.7171 60.9214 25.4477 60.3084 25.5202 59.4797C25.5927 58.6509 24.9796 57.9204 24.1509 57.8478C23.3222 57.7753 22.5916 58.3884 22.5191 59.2171C22.4466 60.0458 23.0596 60.7764 23.8884 60.8489Z" fill="black"/>
<path d="M38.894 62.1617C39.7227 62.2342 40.4533 61.6212 40.5258 60.7924C40.5983 59.9637 39.9853 59.2331 39.1565 59.1606C38.3278 59.0881 37.5972 59.7012 37.5247 60.5299C37.4522 61.3586 38.0653 62.0892 38.894 62.1617Z" fill="black"/>
<path d="M53.8991 63.4745C54.7278 63.547 55.4584 62.934 55.5309 62.1052C55.6034 61.2765 54.9904 60.5459 54.1617 60.4734C53.3329 60.4009 52.6024 61.014 52.5299 61.8427C52.4574 62.6714 53.0704 63.402 53.8991 63.4745Z" fill="black"/>
<path d="M63.9028 64.3497C64.7315 64.4222 65.4621 63.8092 65.5346 62.9804C65.6071 62.1517 64.994 61.4211 64.1653 61.3486C63.3366 61.2761 62.606 61.8892 62.5335 62.7179C62.461 63.5466 63.074 64.2772 63.9028 64.3497Z" fill="black"/>
<path d="M68.9042 64.7873C69.7329 64.8598 70.4635 64.2467 70.536 63.418C70.6085 62.5893 69.9955 61.8587 69.1668 61.7862C68.3381 61.7137 67.6075 62.3267 67.535 63.1555C67.4625 63.9842 68.0755 64.7148 68.9042 64.7873Z" fill="black"/>
<path d="M78.9079 65.6625C79.7366 65.735 80.4672 65.1219 80.5397 64.2932C80.6122 63.4645 79.9992 62.7339 79.1705 62.6614C78.3417 62.5889 77.6111 63.2019 77.5386 64.0307C77.4661 64.8594 78.0792 65.59 78.9079 65.6625Z" fill="black"/>
<path d="M93.913 66.9753C94.7417 67.0478 95.4723 66.4347 95.5448 65.606C95.6173 64.7773 95.0043 64.0467 94.1756 63.9742C93.3469 63.9017 92.6163 64.5147 92.5438 65.3435C92.4713 66.1722 93.0843 66.9028 93.913 66.9753Z" fill="black"/>
<path d="M103.917 67.8505C104.745 67.923 105.476 67.3099 105.548 66.4812C105.621 65.6525 105.008 64.9219 104.179 64.8494C103.351 64.7769 102.62 65.3899 102.547 66.2187C102.475 67.0474 103.088 67.778 103.917 67.8505Z" fill="black"/>
<path d="M108.919 68.2881C109.747 68.3606 110.478 67.7475 110.55 66.9188C110.623 66.0901 110.01 65.3595 109.181 65.287C108.352 65.2145 107.622 65.8275 107.549 66.6562C107.477 67.485 108.09 68.2155 108.919 68.2881Z" fill="black"/>
<path d="M113.92 68.7256C114.749 68.7981 115.479 68.1851 115.552 67.3564C115.624 66.5277 115.011 65.7971 114.183 65.7246C113.354 65.6521 112.623 66.2651 112.551 67.0938C112.478 67.9226 113.091 68.6531 113.92 68.7256Z" fill="black"/>
<path d="M118.922 69.1633C119.751 69.2358 120.481 68.6227 120.554 67.794C120.626 66.9653 120.013 66.2347 119.184 66.1622C118.356 66.0897 117.625 66.7027 117.553 67.5315C117.48 68.3602 118.093 69.0908 118.922 69.1633Z" fill="black"/>
<path d="M48.4596 68.0387C49.2884 68.1112 50.019 67.4981 50.0915 66.6694C50.164 65.8407 49.5509 65.1101 48.7222 65.0376C47.8935 64.9651 47.1629 65.5781 47.0904 66.4069C47.0179 67.2356 47.6309 67.9662 48.4596 68.0387Z" fill="black"/>
<path d="M53.4616 68.4763C54.2903 68.5488 55.0209 67.9357 55.0934 67.107C55.1659 66.2783 54.5529 65.5477 53.7242 65.4752C52.8954 65.4027 52.1649 66.0157 52.0924 66.8444C52.0199 67.6732 52.6329 68.4038 53.4616 68.4763Z" fill="black"/>
<path d="M58.4633 68.9138C59.292 68.9863 60.0226 68.3733 60.0951 67.5446C60.1676 66.7159 59.5546 65.9853 58.7259 65.9128C57.8972 65.8403 57.1666 66.4533 57.0941 67.282C57.0216 68.1107 57.6346 68.8413 58.4633 68.9138Z" fill="black"/>
<path d="M63.4648 69.3515C64.2935 69.424 65.0241 68.8109 65.0966 67.9822C65.1691 67.1535 64.5561 66.4229 63.7273 66.3504C62.8986 66.2779 62.168 66.8909 62.0955 67.7196C62.023 68.5484 62.6361 69.2789 63.4648 69.3515Z" fill="black"/>
<path d="M68.4667 69.789C69.2954 69.8615 70.026 69.2485 70.0985 68.4198C70.171 67.5911 69.558 66.8605 68.7293 66.788C67.9006 66.7155 67.17 67.3285 67.0975 68.1572C67.025 68.986 67.638 69.7165 68.4667 69.789Z" fill="black"/>
<path d="M73.4684 70.2266C74.2972 70.2991 75.0277 69.6861 75.1002 68.8574C75.1728 68.0287 74.5597 67.2981 73.731 67.2256C72.9023 67.1531 72.1717 67.7661 72.0992 68.5948C72.0267 69.4235 72.6397 70.1541 73.4684 70.2266Z" fill="black"/>
<path d="M83.4719 71.1018C84.3006 71.1743 85.0312 70.5613 85.1037 69.7326C85.1762 68.9039 84.5631 68.1733 83.7344 68.1008C82.9057 68.0283 82.1751 68.6413 82.1026 69.47C82.0301 70.2987 82.6431 71.0293 83.4719 71.1018Z" fill="black"/>
<path d="M98.4772 72.4146C99.3059 72.4871 100.037 71.8741 100.109 71.0454C100.182 70.2166 99.5685 69.4861 98.7398 69.4136C97.9111 69.341 97.1805 69.9541 97.108 70.7828C97.0355 71.6115 97.6485 72.3421 98.4772 72.4146Z" fill="black"/>
<path d="M113.483 73.7274C114.312 73.7999 115.042 73.1869 115.115 72.3582C115.187 71.5294 114.574 70.7989 113.745 70.7264C112.917 70.6539 112.186 71.2669 112.114 72.0956C112.041 72.9243 112.654 73.6549 113.483 73.7274Z" fill="black"/>
<path d="M23.0134 70.8524C23.8421 70.9249 24.5727 70.3119 24.6452 69.4832C24.7177 68.6545 24.1046 67.9239 23.2759 67.8514C22.4472 67.7789 21.7166 68.3919 21.6441 69.2206C21.5716 70.0493 22.1846 70.7799 23.0134 70.8524Z" fill="black"/>
<path d="M28.0151 71.29C28.8438 71.3625 29.5744 70.7495 29.6469 69.9208C29.7194 69.0921 29.1063 68.3615 28.2776 68.289C27.4489 68.2165 26.7183 68.8295 26.6458 69.6582C26.5733 70.4869 27.1864 71.2175 28.0151 71.29Z" fill="black"/>
<path d="M53.0236 73.478C53.8523 73.5505 54.5829 72.9375 54.6554 72.1088C54.7279 71.2801 54.1149 70.5495 53.2862 70.477C52.4575 70.4045 51.7269 71.0175 51.6544 71.8462C51.5819 72.6749 52.1949 73.4055 53.0236 73.478Z" fill="black"/>
<path d="M63.0273 74.3532C63.856 74.4257 64.5866 73.8127 64.6591 72.9839C64.7316 72.1552 64.1186 71.4246 63.2898 71.3521C62.4611 71.2796 61.7305 71.8927 61.658 72.7214C61.5855 73.5501 62.1986 74.2807 63.0273 74.3532Z" fill="black"/>
<path d="M93.0383 76.9788C93.867 77.0513 94.5976 76.4383 94.6701 75.6096C94.7426 74.7808 94.1295 74.0502 93.3008 73.9777C92.4721 73.9052 91.7415 74.5183 91.669 75.347C91.5965 76.1757 92.2095 76.9063 93.0383 76.9788Z" fill="black"/>
<path d="M98.0397 77.4164C98.8684 77.4889 99.599 76.8759 99.6715 76.0471C99.744 75.2184 99.131 74.4878 98.3023 74.4153C97.4736 74.3428 96.743 74.9559 96.6705 75.7846C96.598 76.6133 97.211 77.3439 98.0397 77.4164Z" fill="black"/>
<path d="M103.041 77.854C103.87 77.9265 104.6 77.3134 104.673 76.4847C104.746 75.656 104.132 74.9254 103.304 74.8529C102.475 74.7804 101.744 75.3934 101.672 76.2222C101.599 77.0509 102.212 77.7815 103.041 77.854Z" fill="black"/>
<path d="M113.045 78.7292C113.874 78.8017 114.604 78.1887 114.677 77.3599C114.749 76.5312 114.136 75.8006 113.307 75.7281C112.479 75.6556 111.748 76.2687 111.676 77.0974C111.603 77.9261 112.216 78.6567 113.045 78.7292Z" fill="black"/>
<path d="M17.5739 75.4166C18.4026 75.4891 19.1332 74.8761 19.2057 74.0473C19.2782 73.2186 18.6652 72.488 17.8365 72.4155C17.0077 72.343 16.2772 72.9561 16.2047 73.7848C16.1322 74.6135 16.7452 75.3441 17.5739 75.4166Z" fill="black"/>
<path d="M32.579 76.7294C33.4078 76.8019 34.1383 76.1889 34.2108 75.3601C34.2833 74.5314 33.6703 73.8008 32.8416 73.7283C32.0129 73.6558 31.2823 74.2689 31.2098 75.0976C31.1373 75.9263 31.7503 76.6569 32.579 76.7294Z" fill="black"/>
<path d="M42.5827 77.6046C43.4114 77.6771 44.142 77.0641 44.2145 76.2353C44.287 75.4066 43.674 74.676 42.8453 74.6035C42.0165 74.531 41.286 75.1441 41.2134 75.9728C41.1409 76.8015 41.754 77.5321 42.5827 77.6046Z" fill="black"/>
<path d="M47.5846 78.0422C48.4134 78.1147 49.144 77.5017 49.2165 76.673C49.289 75.8442 48.6759 75.1136 47.8472 75.0411C47.0185 74.9686 46.2879 75.5817 46.2154 76.4104C46.1429 77.2391 46.7559 77.9697 47.5846 78.0422Z" fill="black"/>
<path d="M57.5878 78.9174C58.4165 78.9899 59.1471 78.3768 59.2196 77.5481C59.2921 76.7194 58.6791 75.9888 57.8504 75.9163C57.0217 75.8438 56.2911 76.4568 56.2186 77.2856C56.1461 78.1143 56.7591 78.8449 57.5878 78.9174Z" fill="black"/>
<path d="M72.593 80.2302C73.4217 80.3027 74.1523 79.6896 74.2248 78.8609C74.2973 78.0322 73.6842 77.3016 72.8555 77.2291C72.0268 77.1566 71.2962 77.7696 71.2237 78.5984C71.1512 79.4271 71.7642 80.1577 72.593 80.2302Z" fill="black"/>
<path d="M82.5971 81.1054C83.4258 81.1779 84.1564 80.5648 84.2289 79.7361C84.3014 78.9074 83.6884 78.1768 82.8597 78.1043C82.0309 78.0318 81.3004 78.6448 81.2279 79.4736C81.1553 80.3023 81.7684 81.0329 82.5971 81.1054Z" fill="black"/>
<path d="M97.6022 82.4181C98.4309 82.4907 99.1615 81.8776 99.234 81.0489C99.3065 80.2202 98.6935 79.4896 97.8648 79.4171C97.0361 79.3446 96.3055 79.9576 96.233 80.7863C96.1605 81.6151 96.7735 82.3456 97.6022 82.4181Z" fill="black"/>
<path d="M107.606 83.2934C108.435 83.3659 109.165 82.7528 109.238 81.9241C109.31 81.0954 108.697 80.3648 107.868 80.2923C107.04 80.2198 106.309 80.8328 106.237 81.6616C106.164 82.4903 106.777 83.2209 107.606 83.2934Z" fill="black"/>
<path d="M112.607 83.731C113.436 83.8035 114.167 83.1904 114.239 82.3617C114.312 81.533 113.699 80.8024 112.87 80.7299C112.041 80.6574 111.311 81.2704 111.238 82.0991C111.166 82.9279 111.779 83.6585 112.607 83.731Z" fill="black"/>
<path d="M57.1503 83.9191C57.979 83.9916 58.7096 83.3786 58.7821 82.5499C58.8546 81.7212 58.2416 80.9906 57.4129 80.9181C56.5842 80.8456 55.8536 81.4586 55.7811 82.2873C55.7086 83.1161 56.3216 83.8466 57.1503 83.9191Z" fill="black"/>
<path d="M62.152 84.3567C62.9808 84.4292 63.7113 83.8162 63.7838 82.9875C63.8563 82.1587 63.2433 81.4282 62.4146 81.3557C61.5859 81.2832 60.8553 81.8962 60.7828 82.7249C60.7103 83.5536 61.3233 84.2842 62.152 84.3567Z" fill="black"/>
<path d="M72.1557 85.2319C72.9844 85.3044 73.715 84.6914 73.7875 83.8627C73.86 83.034 73.247 82.3034 72.4183 82.2309C71.5895 82.1584 70.8589 82.7714 70.7864 83.6001C70.7139 84.4289 71.327 85.1594 72.1557 85.2319Z" fill="black"/>
<path d="M77.1576 85.6696C77.9864 85.7421 78.717 85.129 78.7895 84.3003C78.862 83.4716 78.2489 82.741 77.4202 82.6685C76.5915 82.596 75.8609 83.209 75.7884 84.0377C75.7159 84.8665 76.3289 85.597 77.1576 85.6696Z" fill="black"/>
<path d="M82.1591 86.1071C82.9878 86.1796 83.7184 85.5666 83.7909 84.7379C83.8634 83.9092 83.2504 83.1786 82.4217 83.1061C81.593 83.0336 80.8624 83.6466 80.7899 84.4753C80.7174 85.3041 81.3304 86.0346 82.1591 86.1071Z" fill="black"/>
<path d="M87.1613 86.5447C87.99 86.6172 88.7206 86.0042 88.7931 85.1755C88.8656 84.3468 88.2526 83.6162 87.4239 83.5437C86.5951 83.4712 85.8646 84.0842 85.7921 84.9129C85.7196 85.7416 86.3326 86.4722 87.1613 86.5447Z" fill="black"/>
<path d="M102.166 87.8575C102.995 87.93 103.726 87.317 103.798 86.4883C103.871 85.6595 103.258 84.929 102.429 84.8565C101.6 84.7839 100.87 85.397 100.797 86.2257C100.725 87.0544 101.338 87.785 102.166 87.8575Z" fill="black"/>
<path d="M112.17 88.7327C112.999 88.8052 113.729 88.1922 113.802 87.3635C113.874 86.5347 113.261 85.8042 112.432 85.7317C111.604 85.6591 110.873 86.2722 110.801 87.1009C110.728 87.9296 111.341 88.6602 112.17 88.7327Z" fill="black"/>
<path d="M66.716 89.7961C67.5447 89.8686 68.2753 89.2555 68.3478 88.4268C68.4203 87.5981 67.8073 86.8675 66.9786 86.795C66.1498 86.7225 65.4193 87.3356 65.3467 88.1643C65.2742 88.993 65.8873 89.7236 66.716 89.7961Z" fill="black"/>
<path d="M76.7201 90.6713C77.5489 90.7438 78.2795 90.1308 78.352 89.3021C78.4245 88.4734 77.8114 87.7428 76.9827 87.6703C76.154 87.5978 75.4234 88.2108 75.3509 89.0395C75.2784 89.8682 75.8914 90.5988 76.7201 90.6713Z" fill="black"/>
<path d="M86.7233 91.5465C87.552 91.619 88.2826 91.006 88.3551 90.1772C88.4276 89.3485 87.8146 88.6179 86.9859 88.5454C86.1572 88.4729 85.4266 89.086 85.3541 89.9147C85.2816 90.7434 85.8946 91.474 86.7233 91.5465Z" fill="black"/>
<path d="M91.7253 91.9841C92.554 92.0566 93.2846 91.4436 93.3571 90.6149C93.4296 89.7861 92.8166 89.0556 91.9878 88.9831C91.1591 88.9106 90.4285 89.5236 90.356 90.3523C90.2835 91.181 90.8966 91.9116 91.7253 91.9841Z" fill="black"/>
<path d="M101.728 92.8593C102.557 92.9318 103.288 92.3188 103.36 91.49C103.433 90.6613 102.82 89.9307 101.991 89.8582C101.162 89.7857 100.432 90.3988 100.359 91.2275C100.287 92.0562 100.9 92.7868 101.728 92.8593Z" fill="black"/>
<path d="M106.73 93.2969C107.559 93.3694 108.29 92.7563 108.362 91.9276C108.435 91.0989 107.822 90.3683 106.993 90.2958C106.164 90.2233 105.434 90.8363 105.361 91.6651C105.289 92.4938 105.902 93.2244 106.73 93.2969Z" fill="black"/>
<path d="M56.2751 93.9227C57.1038 93.9952 57.8344 93.3821 57.9069 92.5534C57.9794 91.7247 57.3664 90.9941 56.5376 90.9216C55.7089 90.8491 54.9783 91.4621 54.9058 92.2909C54.8333 93.1196 55.4464 93.8502 56.2751 93.9227Z" fill="black"/>
<path d="M66.2787 94.7979C67.1075 94.8704 67.838 94.2573 67.9105 93.4286C67.9831 92.5999 67.37 91.8693 66.5413 91.7968C65.7126 91.7243 64.982 92.3373 64.9095 93.1661C64.837 93.9948 65.45 94.7254 66.2787 94.7979Z" fill="black"/>
<path d="M71.2802 95.2355C72.1089 95.308 72.8395 94.6949 72.912 93.8662C72.9845 93.0375 72.3715 92.3069 71.5428 92.2344C70.714 92.1619 69.9835 92.7749 69.911 93.6037C69.8385 94.4324 70.4515 95.163 71.2802 95.2355Z" fill="black"/>
<path d="M76.2822 95.6731C77.1109 95.7456 77.8415 95.1325 77.914 94.3038C77.9865 93.4751 77.3734 92.7445 76.5447 92.672C75.716 92.5995 74.9854 93.2125 74.9129 94.0413C74.8404 94.87 75.4534 95.6006 76.2822 95.6731Z" fill="black"/>
<path d="M81.2844 96.1107C82.1131 96.1832 82.8437 95.5702 82.9162 94.7414C82.9887 93.9127 82.3756 93.1821 81.5469 93.1096C80.7182 93.0371 79.9876 93.6502 79.9151 94.4789C79.8426 95.3076 80.4556 96.0382 81.2844 96.1107Z" fill="black"/>
<path d="M86.2858 96.5483C87.1145 96.6208 87.8451 96.0077 87.9176 95.179C87.9901 94.3503 87.3771 93.6197 86.5484 93.5472C85.7197 93.4747 84.9891 94.0877 84.9166 94.9165C84.8441 95.7452 85.4571 96.4758 86.2858 96.5483Z" fill="black"/>
<path d="M101.291 97.8611C102.12 97.9336 102.85 97.3205 102.923 96.4918C102.995 95.6631 102.382 94.9325 101.554 94.86C100.725 94.7875 99.9942 95.4005 99.9217 96.2293C99.8492 97.058 100.462 97.7886 101.291 97.8611Z" fill="black"/>
<path d="M106.293 98.2987C107.122 98.3712 107.852 97.7581 107.925 96.9294C107.997 96.1007 107.384 95.3701 106.556 95.2976C105.727 95.2251 104.996 95.8381 104.924 96.6668C104.851 97.4956 105.464 98.2262 106.293 98.2987Z" fill="black"/>
<path d="M116.296 99.1738C117.125 99.2463 117.855 98.6333 117.928 97.8046C118 96.9759 117.387 96.2453 116.559 96.1728C115.73 96.1003 114.999 96.7133 114.927 97.542C114.854 98.3708 115.467 99.1013 116.296 99.1738Z" fill="black"/>
<path d="M55.8376 98.9244C56.6663 98.9969 57.3969 98.3839 57.4694 97.5552C57.5419 96.7265 56.9289 95.9959 56.1001 95.9234C55.2714 95.8509 54.5408 96.4639 54.4683 97.2926C54.3958 98.1213 55.0089 98.8519 55.8376 98.9244Z" fill="black"/>
<path d="M60.8393 99.362C61.668 99.4345 62.3986 98.8215 62.4711 97.9928C62.5436 97.164 61.9306 96.4335 61.1018 96.361C60.2731 96.2885 59.5425 96.9015 59.47 97.7302C59.3975 98.5589 60.0106 99.2895 60.8393 99.362Z" fill="black"/>
<path d="M75.8449 100.675C76.6736 100.747 77.4042 100.134 77.4767 99.3056C77.5492 98.4768 76.9362 97.7463 76.1075 97.6738C75.2787 97.6013 74.5482 98.2143 74.4757 99.043C74.4032 99.8717 75.0162 100.602 75.8449 100.675Z" fill="black"/>
<path d="M90.85 101.988C91.6787 102.06 92.4093 101.447 92.4818 100.618C92.5543 99.7897 91.9413 99.0591 91.1126 98.9866C90.2839 98.9141 89.5533 99.5271 89.4808 100.356C89.4083 101.185 90.0213 101.915 90.85 101.988Z" fill="black"/>
<path d="M100.854 102.863C101.682 102.935 102.413 102.322 102.486 101.494C102.558 100.665 101.945 99.9343 101.116 99.8617C100.288 99.7892 99.5569 100.402 99.4844 101.231C99.4119 102.06 100.025 102.79 100.854 102.863Z" fill="black"/>
<path d="M55.4003 103.926C56.229 103.999 56.9596 103.386 57.0321 102.557C57.1046 101.728 56.4916 100.998 55.6629 100.925C54.8342 100.853 54.1036 101.466 54.0311 102.294C53.9586 103.123 54.5716 103.854 55.4003 103.926Z" fill="black"/>
<path d="M60.4018 104.364C61.2305 104.436 61.9611 103.823 62.0336 102.995C62.1061 102.166 61.4931 101.435 60.6643 101.363C59.8356 101.29 59.105 101.903 59.0325 102.732C58.96 103.561 59.5731 104.291 60.4018 104.364Z" fill="black"/>
<path d="M65.4033 104.801C66.232 104.874 66.9626 104.261 67.0351 103.432C67.1076 102.603 66.4945 101.873 65.6658 101.8C64.8371 101.728 64.1065 102.341 64.034 103.17C63.9615 103.998 64.5745 104.729 65.4033 104.801Z" fill="black"/>
<path d="M75.4074 105.677C76.2361 105.749 76.9667 105.136 77.0392 104.307C77.1117 103.479 76.4987 102.748 75.67 102.676C74.8412 102.603 74.1107 103.216 74.0382 104.045C73.9657 104.873 74.5787 105.604 75.4074 105.677Z" fill="black"/>
<path d="M90.4125 106.989C91.2412 107.062 91.9718 106.449 92.0443 105.62C92.1168 104.791 91.5038 104.061 90.6751 103.988C89.8464 103.916 89.1158 104.529 89.0433 105.358C88.9708 106.186 89.5838 106.917 90.4125 106.989Z" fill="black"/>
<path d="M105.418 108.302C106.246 108.375 106.977 107.762 107.049 106.933C107.122 106.104 106.509 105.374 105.68 105.301C104.851 105.229 104.121 105.842 104.048 106.67C103.976 107.499 104.589 108.23 105.418 108.302Z" fill="black"/>
<path d="M54.9623 108.928C55.7911 109 56.5216 108.387 56.5941 107.559C56.6666 106.73 56.0536 105.999 55.2249 105.927C54.3962 105.854 53.6656 106.467 53.5931 107.296C53.5206 108.125 54.1336 108.855 54.9623 108.928Z" fill="black"/>
<path d="M59.9643 109.366C60.793 109.438 61.5236 108.825 61.5961 107.996C61.6686 107.168 61.0556 106.437 60.2268 106.364C59.3981 106.292 58.6675 106.905 58.595 107.734C58.5225 108.562 59.1356 109.293 59.9643 109.366Z" fill="black"/>
<path d="M69.9675 110.241C70.7962 110.313 71.5268 109.7 71.5993 108.872C71.6718 108.043 71.0587 107.312 70.23 107.24C69.4013 107.167 68.6707 107.78 68.5982 108.609C68.5257 109.438 69.1387 110.168 69.9675 110.241Z" fill="black"/>
<path d="M79.9716 111.116C80.8003 111.188 81.5309 110.575 81.6034 109.747C81.6759 108.918 81.0629 108.187 80.2342 108.115C79.4055 108.042 78.6749 108.655 78.6024 109.484C78.5299 110.313 79.1429 111.043 79.9716 111.116Z" fill="black"/>
<path d="M94.9767 112.429C95.8055 112.501 96.536 111.888 96.6085 111.06C96.6811 110.231 96.068 109.5 95.2393 109.428C94.4106 109.355 93.68 109.968 93.6075 110.797C93.535 111.626 94.148 112.356 94.9767 112.429Z" fill="black"/>
<path d="M104.98 113.304C105.809 113.376 106.539 112.763 106.612 111.935C106.684 111.106 106.071 110.375 105.243 110.303C104.414 110.23 103.683 110.843 103.611 111.672C103.538 112.501 104.151 113.231 104.98 113.304Z" fill="black"/>
<path d="M64.5285 114.805C65.3572 114.877 66.0878 114.264 66.1603 113.436C66.2328 112.607 65.6198 111.876 64.7911 111.804C63.9623 111.731 63.2318 112.344 63.1592 113.173C63.0867 114.002 63.6998 114.732 64.5285 114.805Z" fill="black"/>
<path d="M89.5373 116.993C90.366 117.065 91.0966 116.452 91.1691 115.624C91.2416 114.795 90.6286 114.064 89.7998 113.992C88.9711 113.919 88.2405 114.532 88.168 115.361C88.0955 116.19 88.7086 116.92 89.5373 116.993Z" fill="black"/>
<path d="M94.5388 117.43C95.3675 117.503 96.0981 116.89 96.1706 116.061C96.2431 115.233 95.63 114.502 94.8013 114.429C93.9726 114.357 93.242 114.97 93.1695 115.799C93.097 116.627 93.71 117.358 94.5388 117.43Z" fill="black"/>
<path d="M104.542 118.306C105.371 118.378 106.102 117.765 106.174 116.936C106.247 116.108 105.634 115.377 104.805 115.305C103.976 115.232 103.246 115.845 103.173 116.674C103.101 117.503 103.714 118.233 104.542 118.306Z" fill="black"/>
<path d="M109.544 118.743C110.373 118.816 111.104 118.203 111.176 117.374C111.249 116.545 110.636 115.815 109.807 115.742C108.978 115.67 108.248 116.283 108.175 117.111C108.103 117.94 108.716 118.671 109.544 118.743Z" fill="black"/>
<path d="M54.0873 118.932C54.9161 119.004 55.6466 118.391 55.7191 117.562C55.7916 116.734 55.1786 116.003 54.3499 115.93C53.5212 115.858 52.7906 116.471 52.7181 117.3C52.6456 118.128 53.2586 118.859 54.0873 118.932Z" fill="black"/>
<path d="M59.089 119.369C59.9178 119.442 60.6483 118.829 60.7209 118C60.7934 117.171 60.1803 116.441 59.3516 116.368C58.5229 116.296 57.7923 116.909 57.7198 117.737C57.6473 118.566 58.2603 119.297 59.089 119.369Z" fill="black"/>
<path d="M69.0925 120.244C69.9212 120.317 70.6518 119.704 70.7243 118.875C70.7968 118.046 70.1837 117.316 69.355 117.243C68.5263 117.171 67.7957 117.784 67.7232 118.612C67.6507 119.441 68.2637 120.172 69.0925 120.244Z" fill="black"/>
<path d="M79.0961 121.119C79.9248 121.192 80.6554 120.579 80.7279 119.75C80.8004 118.922 80.1874 118.191 79.3587 118.118C78.53 118.046 77.7994 118.659 77.7269 119.488C77.6544 120.316 78.2674 121.047 79.0961 121.119Z" fill="black"/>
<path d="M94.1013 122.432C94.93 122.505 95.6606 121.892 95.7331 121.063C95.8056 120.234 95.1925 119.504 94.3638 119.431C93.5351 119.359 92.8045 119.972 92.732 120.8C92.6595 121.629 93.2725 122.36 94.1013 122.432Z" fill="black"/>
<path d="M104.105 123.307C104.934 123.38 105.664 122.767 105.737 121.938C105.809 121.109 105.196 120.379 104.367 120.306C103.539 120.234 102.808 120.847 102.736 121.676C102.663 122.504 103.276 123.235 104.105 123.307Z" fill="black"/>
<path d="M50.4348 13.7789L25.9262 11.6347L20.6743 11.1752L20.2148 16.4271L18.0706 40.9357L17.6111 46.1876L22.863 46.647L47.3716 48.7913L52.6235 49.2507L53.083 43.9989L55.2272 19.4903L55.6867 14.2384L50.4348 13.7789ZM47.8311 43.5394L23.3225 41.3952L25.4667 16.8865L49.9753 19.0308L47.8311 43.5394Z" fill="black"/>
<path d="M120.459 19.9053L95.9508 17.7611L90.699 17.3016L90.2395 22.5534L88.0953 47.0621L87.6358 52.3139L92.8876 52.7734L117.396 54.9176L122.648 55.3771L123.108 50.1253L125.252 25.6166L125.711 20.3648L120.459 19.9053ZM117.856 49.6658L93.3471 47.5216L95.4913 23.0129L120 25.1571L117.856 49.6658Z" fill="black"/>
<path d="M44.3081 83.8036L19.7995 81.6594L14.5476 81.1999L14.0881 86.4518L11.9439 110.96L11.4844 116.212L16.7363 116.672L41.2449 118.816L46.4968 119.275L46.9562 114.024L49.1005 89.515L49.56 84.2631L44.3081 83.8036ZM41.7044 113.564L17.1958 111.42L19.34 86.9112L43.8486 89.0555L41.7044 113.564Z" fill="black"/>
<path d="M44.8078 23.3667L29.8025 22.0539L28.4897 37.0592L43.495 38.372L44.8078 23.3667Z" fill="black"/>
<path d="M114.832 29.4931L99.8271 28.1803L98.5144 43.1856L113.52 44.4984L114.832 29.4931Z" fill="black"/>
<path d="M38.6813 93.3914L23.676 92.0786L22.3632 107.084L37.3685 108.397L38.6813 93.3914Z" fill="black"/>
</g>
<defs>
<clipPath id="clip0_552_1719">
<rect width="125.522" height="125.522" fill="white" transform="translate(11.5461 0.296509) rotate(5)"/>
</clipPath>
</defs>
</svg>
