<svg width="186" height="186" viewBox="0 0 186 186" fill="none" xmlns="http://www.w3.org/2000/svg">
<g clip-path="url(#clip0_930_5819)">
<rect width="186" height="186" rx="93" fill="#FEF3EF"/>
<g clip-path="url(#clip1_930_5819)">
<path d="M97.3508 155.852L1.11396 185.747C-3.07572 187.039 -6.9819 183.132 -5.69034 178.943L24.2045 82.7059L97.3508 155.852Z" fill="#A684DA"/>
<path d="M100.311 154.147C107.323 147.135 96.3528 124.796 75.8085 104.252C55.2643 83.7077 32.9255 72.7377 25.9133 79.7498C18.9012 86.7619 29.8712 109.101 50.4154 129.645C70.9597 150.189 93.2985 161.159 100.311 154.147Z" fill="#CBB2EB"/>
<path d="M83.5521 160.139L64.9347 165.935C60.8081 164.454 56.7444 162.69 52.7437 160.611C44.0493 156.107 35.7014 150.216 27.9206 143.065C26.6605 141.899 25.2745 140.576 23.7939 139.127C19.9822 135.316 15.6036 130.464 11.1934 124.668L15.005 112.32C21.9983 122.841 29.5587 130.653 34.8509 135.505C49.7196 149.145 66.1003 157.43 83.5521 160.139Z" fill="#CBB2EB"/>
<path d="M52.4611 169.775L37.7814 174.342C29.3706 169.901 21.3062 164.136 13.7459 157.206C12.4858 156.04 11.0998 154.717 9.61919 153.268C7.88661 151.535 6.02803 149.582 4.10645 147.409L7.69761 135.785C12.4858 141.707 17.085 146.338 20.6762 149.645C30.6621 158.781 41.2781 165.522 52.4611 169.775Z" fill="#CBB2EB"/>
<path d="M25.8723 178.062L12.9882 182.063C8.38902 178.912 3.88432 175.321 -0.399868 171.384C-1.1244 170.722 -1.88043 170.029 -2.66797 169.242L0.765684 158.153C2.84478 160.327 4.82936 162.217 6.53044 163.792C12.7362 169.494 19.194 174.25 25.8723 178.062Z" fill="#CBB2EB"/>
<path d="M50.0658 94.8975L45.498 90.3298C52.7434 83.0845 56.8701 73.7916 57.7836 62.6716C58.4766 54.2292 56.9646 47.8344 56.9331 47.7714L63.2018 46.2278C63.2648 46.5114 64.9659 53.5047 64.2414 62.9551C63.2648 75.5872 58.3506 86.6126 50.0658 94.8975Z" fill="#E35BAD"/>
<path d="M86.2923 135.69L81.7246 131.122C90.6395 122.207 103.272 117.703 118.235 118.144C129.355 118.459 137.797 121.357 138.144 121.483L136.033 127.563L137.073 124.507L136.033 127.563C135.939 127.531 128.032 124.854 117.857 124.57C104.658 124.224 94.0102 127.972 86.2923 135.69Z" fill="#FE7122"/>
<path d="M63.9883 88.3735C66.3194 84.4989 69.4065 83.4908 71.6431 82.7348C73.5332 82.1048 74.6988 81.7267 75.8013 79.8997C76.9039 78.0726 76.7148 76.8755 76.3683 74.8909C75.9588 72.5598 75.4233 69.3782 77.7544 65.5035C80.0855 61.6288 83.1726 60.6208 85.4092 59.8648C87.2993 59.2347 88.4649 58.8567 89.5674 57.0296C90.67 55.2025 90.481 54.0055 90.1345 52.0209C89.7249 49.6898 89.1894 46.5082 91.5205 42.6335L97.0333 45.9411C95.9307 47.7682 96.1197 48.9653 96.4662 50.9499C96.8758 53.281 97.4113 56.4626 95.0802 60.3373C92.7491 64.212 89.6619 65.22 87.4253 65.976C85.5352 66.6061 84.3697 66.9841 83.2671 68.8112C82.1646 70.6382 82.3536 71.8353 82.7001 73.8199C83.1096 76.151 83.6452 79.3326 81.3141 83.2073C78.983 87.082 75.8958 88.09 73.6592 88.8461C71.7691 89.4761 70.6036 89.8541 69.501 91.6812L63.9883 88.3735Z" fill="#FE7122"/>
<path d="M90.5759 105.668L87.4258 100.061C91.4895 97.7614 94.7656 98.4229 97.1597 98.9269C99.2388 99.3364 100.467 99.5885 102.483 98.4859C104.468 97.3834 104.909 96.1863 105.634 94.1702C106.453 91.8706 107.618 88.752 111.682 86.4524C115.746 84.1528 119.022 84.8143 121.416 85.2868C123.495 85.6963 124.723 85.9483 126.74 84.8458C128.724 83.7432 129.165 82.5147 129.89 80.5301C130.709 78.2305 131.874 75.1119 135.938 72.8123L139.088 78.4195C137.103 79.5221 136.662 80.7506 135.938 82.7352C135.119 85.0348 133.953 88.1534 129.89 90.453C125.826 92.7526 122.55 92.0911 120.156 91.6186C118.077 91.2091 116.848 90.9571 114.832 92.0596C112.847 93.1622 112.406 94.3592 111.682 96.3753C110.863 98.6749 109.697 101.794 105.634 104.093C101.57 106.393 98.2938 105.731 95.8997 105.227C93.8206 104.786 92.5605 104.534 90.5759 105.668Z" fill="#E35BAD"/>
<path d="M131.433 106.079C133.207 106.079 134.646 104.64 134.646 102.866C134.646 101.091 133.207 99.6524 131.433 99.6524C129.658 99.6524 128.22 101.091 128.22 102.866C128.22 104.64 129.658 106.079 131.433 106.079Z" fill="#CBB2EB"/>
<path d="M117.072 143.689C118.846 143.689 120.285 142.25 120.285 140.476C120.285 138.701 118.846 137.262 117.072 137.262C115.297 137.262 113.858 138.701 113.858 140.476C113.858 142.25 115.297 143.689 117.072 143.689Z" fill="#FFB992"/>
<path d="M146.712 116.348C148.487 116.348 149.925 114.91 149.925 113.135C149.925 111.36 148.487 109.922 146.712 109.922C144.938 109.922 143.499 111.36 143.499 113.135C143.499 114.91 144.938 116.348 146.712 116.348Z" fill="#A684DA"/>
<path d="M120.472 71.8978C122.246 71.8978 123.685 70.4593 123.685 68.6847C123.685 66.9101 122.246 65.4716 120.472 65.4716C118.697 65.4716 117.259 66.9101 117.259 68.6847C117.259 70.4593 118.697 71.8978 120.472 71.8978Z" fill="#CBB2EB"/>
<path d="M73.0901 48.1773C74.8647 48.1773 76.3032 46.7387 76.3032 44.9641C76.3032 43.1896 74.8647 41.751 73.0901 41.751C71.3155 41.751 69.877 43.1896 69.877 44.9641C69.877 46.7387 71.3155 48.1773 73.0901 48.1773Z" fill="#E35BAD"/>
<path d="M95.427 75.9952C97.2016 75.9952 98.6402 74.5566 98.6402 72.7821C98.6402 71.0075 97.2016 69.5689 95.427 69.5689C93.6524 69.5689 92.2139 71.0075 92.2139 72.7821C92.2139 74.5566 93.6524 75.9952 95.427 75.9952Z" fill="#FE7122"/>
<path d="M71.0129 115.873C72.7875 115.873 74.2261 114.435 74.2261 112.66C74.2261 110.886 72.7875 109.447 71.0129 109.447C69.2384 109.447 67.7998 110.886 67.7998 112.66C67.7998 114.435 69.2384 115.873 71.0129 115.873Z" fill="#A684DA"/>
<path d="M37.3059 63.455C39.0805 63.455 40.5191 62.0165 40.5191 60.2419C40.5191 58.4673 39.0805 57.0287 37.3059 57.0287C35.5313 57.0287 34.0928 58.4673 34.0928 60.2419C34.0928 62.0165 35.5313 63.455 37.3059 63.455Z" fill="#F7C9E3"/>
</g>
</g>
<defs>
<clipPath id="clip0_930_5819">
<rect width="186" height="186" rx="93" fill="white"/>
</clipPath>
<clipPath id="clip1_930_5819">
<rect width="155.869" height="144.245" fill="white" transform="translate(-5.94531 41.7551)"/>
</clipPath>
</defs>
</svg>
