<svg width="12" height="18" viewBox="0 0 12 18" fill="none" xmlns="http://www.w3.org/2000/svg">
<path d="M6.00033 4.41667C6.55286 4.41667 7.08276 4.63617 7.47346 5.02687C7.86417 5.41757 8.08366 5.94747 8.08366 6.5C8.08366 6.77359 8.02977 7.0445 7.92508 7.29726C7.82038 7.55002 7.66692 7.77969 7.47346 7.97314C7.28001 8.1666 7.05034 8.32006 6.79758 8.42475C6.54482 8.52945 6.27391 8.58334 6.00033 8.58334C5.44779 8.58334 4.91789 8.36384 4.52719 7.97314C4.13649 7.58244 3.91699 7.05254 3.91699 6.5C3.91699 5.94747 4.13649 5.41757 4.52719 5.02687C4.91789 4.63617 5.44779 4.41667 6.00033 4.41667ZM6.00033 0.666672C7.54742 0.666672 9.03115 1.28125 10.1251 2.37522C11.2191 3.46918 11.8337 4.95291 11.8337 6.5C11.8337 10.875 6.00033 17.3333 6.00033 17.3333C6.00033 17.3333 0.166992 10.875 0.166992 6.5C0.166992 4.95291 0.781574 3.46918 1.87554 2.37522C2.9695 1.28125 4.45323 0.666672 6.00033 0.666672ZM6.00033 2.33334C4.89526 2.33334 3.83545 2.77233 3.05405 3.55373C2.27265 4.33513 1.83366 5.39494 1.83366 6.5C1.83366 7.33334 1.83366 9 6.00033 14.5917C10.167 9 10.167 7.33334 10.167 6.5C10.167 5.39494 9.72801 4.33513 8.9466 3.55373C8.1652 2.77233 7.10539 2.33334 6.00033 2.33334Z" fill="white"/>
</svg>
